ffmpeg started on 2016-12-01 at 04:25:33
Report written to "Output/x264/results/ffmpeg/old_town_cross_2160p50medium4500k.log"
Command line:
Tools/ffmpeg/ffmpeg -benchmark -y -i Input/y4m/old_town_cross_2160p50.y4m -c:v libx264 -preset medium -b:v 4500k -an Output/x264/encoded/old_town_cross_2160p50medium4500k.mkv
ffmpeg version N-82227-gdb23fde Copyright (c) 2000-2016 the FFmpeg developers
  built with gcc 5.4.0 (Ubuntu 5.4.0-6ubuntu1~16.04.2) 20160609
  configuration: --prefix=/home/jaroslav/ffmpeg_build --pkg-config-flags=--static --extra-cflags=-I/home/jaroslav/ffmpeg_build/include --extra-ldflags=-L/home/jaroslav/ffmpeg_build/lib --bindir=/home/jaroslav/bin --enable-gpl --enable-libass --enable-libfdk-aac --enable-libfreetype --enable-libmp3lame --enable-libopus --enable-libtheora --enable-libvorbis --enable-libvpx --enable-libx264 --enable-libx265 --enable-nvenc --enable-libmfx --enable-libxvid --enable-libgsm --enable-libopencore-amrnb --enable-version3 --enable-nonfree
  libavutil      55. 35.100 / 55. 35.100
  libavcodec     57. 66.101 / 57. 66.101
  libavformat    57. 57.100 / 57. 57.100
  libavdevice    57.  2.100 / 57.  2.100
  libavfilter     6. 66.100 /  6. 66.100
  libswscale      4.  3.100 /  4.  3.100
  libswresample   2.  4.100 /  2.  4.100
  libpostproc    54.  2.100 / 54.  2.100
Input #0, yuv4mpegpipe, from 'Input/y4m/old_town_cross_2160p50.y4m':
  Duration: 00:00:10.00, start: 0.000000, bitrate: 4976642 kb/s
    Stream #0:0: Video: rawvideo (I420 / 0x30323449), yuv420p(progressive), 3840x2160, SAR 1:1 DAR 16:9, 50 fps, 50 tbr, 50 tbn, 50 tbc
[libx264 @ 0x3530120] using SAR=1/1
[libx264 @ 0x3530120] using cpu capabilities: MMX2 SSE2Fast SSSE3 SSE4.2 AVX FMA3 AVX2 LZCNT BMI2
[libx264 @ 0x3530120] profile High, level 5.2
[libx264 @ 0x3530120] 264 - core 148 - H.264/MPEG-4 AVC codec - Copyleft 2003-2016 - http://www.videolan.org/x264.html - options: cabac=1 ref=3 deblock=1:0:0 analyse=0x3:0x113 me=hex subme=7 psy=1 psy_rd=1.00:0.00 mixed_ref=1 me_range=16 chroma_me=1 trellis=1 8x8dct=1 cqm=0 deadzone=21,11 fast_pskip=1 chroma_qp_offset=-2 threads=6 lookahead_threads=1 sliced_threads=0 nr=0 decimate=1 interlaced=0 bluray_compat=0 constrained_intra=0 bframes=3 b_pyramid=2 b_adapt=1 b_bias=0 direct=1 weightb=1 open_gop=0 weightp=2 keyint=250 keyint_min=25 scenecut=40 intra_refresh=0 rc_lookahead=40 rc=abr mbtree=1 bitrate=4500 ratetol=1.0 qcomp=0.60 qpmin=0 qpmax=69 qpstep=4 ip_ratio=1.40 aq=1:1.00
Output #0, matroska, to 'Output/x264/encoded/old_town_cross_2160p50medium4500k.mkv':
  Metadata:
    encoder         : Lavf57.57.100
    Stream #0:0: Video: h264 (libx264) (H264 / 0x34363248), yuv420p, 3840x2160 [SAR 1:1 DAR 16:9], q=-1--1, 4500 kb/s, 50 fps, 1k tbn, 50 tbc
    Metadata:
      encoder         : Lavc57.66.101 libx264
    Side data:
      cpb: bitrate max/min/avg: 0/0/4500000 buffer size: 0 vbv_delay: -1
Stream mapping:
  Stream #0:0 -> #0:0 (rawvideo (native) -> h264 (libx264))
Press [q] to stop, [?] for help
frame=   47 fps= 18 q=0.0 size=       0kB time=00:00:00.00 bitrate=N/A speed=   0x    frame=   56 fps= 18 q=45.0 size=       1kB time=00:00:00.06 bitrate=  96.3kbits/s speed=0.0199x    frame=   65 fps= 18 q=45.0 size=       1kB time=00:00:00.24 bitrate=  24.4kbits/s speed=0.0675x    frame=   74 fps= 18 q=41.0 size=       1kB time=00:00:00.42 bitrate=  13.9kbits/s speed=0.103x    frame=   82 fps= 18 q=40.0 size=       1kB time=00:00:00.58 bitrate=  10.1kbits/s speed=0.127x    frame=   90 fps= 17 q=40.0 size=       1kB time=00:00:00.74 bitrate=   7.9kbits/s speed=0.142x    frame=   98 fps= 17 q=39.0 size=       1kB time=00:00:00.90 bitrate=   6.5kbits/s speed=0.155x    frame=  107 fps= 17 q=39.0 size=       1kB time=00:00:01.08 bitrate=   5.4kbits/s speed=0.169x    frame=  115 fps= 17 q=39.0 size=       1kB time=00:00:01.24 bitrate=   4.7kbits/s speed=0.179x    frame=  124 fps= 16 q=39.0 size=       1kB time=00:00:01.42 bitrate=   4.1kbits/s speed=0.188x    frame=  132 fps= 16 q=39.0 size=       1kB time=00:00:01.58 bitrate=   3.7kbits/s speed=0.196x    frame=  139 fps= 16 q=39.0 size=       1kB time=00:00:01.72 bitrate=   3.4kbits/s speed=0.201x    frame=  147 fps= 16 q=39.0 size=       1kB time=00:00:01.88 bitrate=   3.1kbits/s speed=0.205x    frame=  155 fps= 16 q=39.0 size=       1kB time=00:00:02.04 bitrate=   2.9kbits/s speed=0.21x    frame=  163 fps= 16 q=39.0 size=       1kB time=00:00:02.20 bitrate=   2.7kbits/s speed=0.214x    frame=  172 fps= 16 q=38.0 size=       1kB time=00:00:02.38 bitrate=   2.5kbits/s speed=0.218x    frame=  180 fps= 16 q=38.0 size=       1kB time=00:00:02.54 bitrate=   2.3kbits/s speed=0.222x    frame=  186 fps= 16 q=38.0 size=       1kB time=00:00:02.66 bitrate=   2.2kbits/s speed=0.222x    frame=  195 fps= 16 q=38.0 size=       1kB time=00:00:02.84 bitrate=   2.1kbits/s speed=0.226x    frame=  203 fps= 15 q=38.0 size=       1kB time=00:00:03.00 bitrate=   2.0kbits/s speed=0.229x    frame=  211 fps= 15 q=38.0 size=       1kB time=00:00:03.16 bitrate=   1.9kbits/s speed=0.232x    frame=  218 fps= 15 q=38.0 size=       1kB time=00:00:03.30 bitrate=   1.8kbits/s speed=0.233x    frame=  226 fps= 15 q=38.0 size=       1kB time=00:00:03.46 bitrate=   1.7kbits/s speed=0.234x    frame=  234 fps= 15 q=38.0 size=       1kB time=00:00:03.62 bitrate=   1.6kbits/s speed=0.236x    frame=  242 fps= 15 q=38.0 size=       1kB time=00:00:03.78 bitrate=   1.6kbits/s speed=0.238x    frame=  250 fps= 15 q=38.0 size=       1kB time=00:00:03.94 bitrate=   1.5kbits/s speed=0.24x    frame=  258 fps= 15 q=38.0 size=       1kB time=00:00:04.10 bitrate=   1.4kbits/s speed=0.242x    frame=  262 fps= 14 q=38.0 size=       1kB time=00:00:04.18 bitrate=   1.4kbits/s speed=0.23x    frame=  263 fps= 14 q=38.0 size=       1kB time=00:00:04.20 bitrate=   1.4kbits/s speed=0.224x    frame=  265 fps= 14 q=38.0 size=       1kB time=00:00:04.24 bitrate=   1.4kbits/s speed=0.217x    frame=  270 fps= 13 q=38.0 size=       1kB time=00:00:04.34 bitrate=   1.4kbits/s speed=0.216x    frame=  275 fps= 13 q=38.0 size=       1kB time=00:00:04.44 bitrate=   1.3kbits/s speed=0.214x    frame=  280 fps= 13 q=38.0 size=       1kB time=00:00:04.54 bitrate=   1.3kbits/s speed=0.213x    frame=  285 fps= 13 q=38.0 size=       1kB time=00:00:04.64 bitrate=   1.3kbits/s speed=0.212x    frame=  290 fps= 13 q=38.0 size=       1kB time=00:00:04.74 bitrate=   1.2kbits/s speed=0.21x    frame=  295 fps= 13 q=35.0 size=       1kB time=00:00:04.84 bitrate=   1.2kbits/s speed=0.208x    frame=  305 fps= 13 q=39.0 size=    2503kB time=00:00:05.04 bitrate=4067.6kbits/s speed=0.212x    frame=  311 fps= 13 q=39.0 size=    2503kB time=00:00:05.16 bitrate=3973.1kbits/s speed=0.212x    frame=  319 fps= 13 q=38.0 size=    2503kB time=00:00:05.32 bitrate=3853.6kbits/s speed=0.214x    frame=  327 fps= 13 q=38.0 size=    2503kB time=00:00:05.48 bitrate=3741.1kbits/s speed=0.216x    frame=  335 fps= 13 q=38.0 size=    2503kB time=00:00:05.64 bitrate=3635.0kbits/s speed=0.217x    frame=  342 fps= 13 q=38.0 size=    2503kB time=00:00:05.78 bitrate=3547.0kbits/s speed=0.219x    frame=  348 fps= 13 q=38.0 size=    2503kB time=00:00:05.90 bitrate=3474.8kbits/s speed=0.219x    frame=  356 fps= 13 q=38.0 size=    2503kB time=00:00:06.06 bitrate=3383.1kbits/s speed=0.22x    frame=  365 fps= 13 q=38.0 size=    2503kB time=00:00:06.24 bitrate=3285.5kbits/s speed=0.221x    frame=  372 fps= 13 q=38.0 size=    2503kB time=00:00:06.38 bitrate=3213.4kbits/s speed=0.222x    frame=  379 fps= 13 q=38.0 size=    2503kB time=00:00:06.52 bitrate=3144.4kbits/s speed=0.223x    frame=  387 fps= 13 q=38.0 size=    2503kB time=00:00:06.68 bitrate=3069.1kbits/s speed=0.224x    frame=  396 fps= 13 q=38.0 size=    2503kB time=00:00:06.86 bitrate=2988.6kbits/s speed=0.226x    frame=  403 fps= 13 q=38.0 size=    2503kB time=00:00:07.00 bitrate=2928.9kbits/s speed=0.227x    frame=  410 fps= 13 q=39.0 size=    2503kB time=00:00:07.14 bitrate=2871.4kbits/s speed=0.228x    frame=  416 fps= 13 q=39.0 size=    2503kB time=00:00:07.26 bitrate=2824.0kbits/s speed=0.228x    frame=  423 fps= 13 q=39.0 size=    2503kB time=00:00:07.40 bitrate=2770.6kbits/s speed=0.228x    frame=  431 fps= 13 q=39.0 size=    2503kB time=00:00:07.56 bitrate=2711.9kbits/s speed=0.229x    frame=  439 fps= 13 q=39.0 size=    2503kB time=00:00:07.72 bitrate=2655.7kbits/s speed=0.23x    frame=  446 fps= 13 q=39.0 size=    2503kB time=00:00:07.86 bitrate=2608.4kbits/s speed=0.231x    frame=  451 fps= 13 q=39.0 size=    2503kB time=00:00:07.96 bitrate=2575.7kbits/s speed=0.23x    frame=  460 fps= 13 q=39.0 size=    2503kB time=00:00:08.14 bitrate=2518.7kbits/s speed=0.231x    frame=  469 fps= 13 q=39.0 size=    2503kB time=00:00:08.32 bitrate=2464.2kbits/s speed=0.231x    frame=  479 fps= 13 q=39.0 size=    2503kB time=00:00:08.52 bitrate=2406.4kbits/s speed=0.233x    frame=  487 fps= 13 q=39.0 size=    2503kB time=00:00:08.68 bitrate=2362.0kbits/s speed=0.234x    frame=  495 fps= 13 q=39.0 size=    2503kB time=00:00:08.84 bitrate=2319.3kbits/s speed=0.234x    frame=  500 fps= 12 q=-1.0 Lsize=    5475kB time=00:00:09.94 bitrate=4512.1kbits/s speed=0.236x    
video:5471kB audio:0kB subtitle:0kB other streams:0kB global headers:0kB muxing overhead: 0.079055%
bench: utime=137.616s
bench: maxrss=1922184kB
[libx264 @ 0x3530120] frame I:3     Avg QP:35.09  size:138661
[libx264 @ 0x3530120] frame P:183   Avg QP:36.81  size: 13189
[libx264 @ 0x3530120] frame B:314   Avg QP:38.45  size:  8829
[libx264 @ 0x3530120] consecutive B-frames: 16.0%  0.8%  0.0% 83.2%
[libx264 @ 0x3530120] mb I  I16..4: 18.2% 70.7% 11.1%
[libx264 @ 0x3530120] mb P  I16..4:  0.1%  0.0%  0.0%  P16..4: 16.8%  0.6%  0.4%  0.0%  0.0%    skip:82.1%
[libx264 @ 0x3530120] mb B  I16..4:  0.0%  0.0%  0.0%  B16..8: 28.7%  0.0%  0.0%  direct: 0.0%  skip:71.2%  L0:44.3% L1:55.7% BI: 0.0%
[libx264 @ 0x3530120] final ratefactor: 30.81
[libx264 @ 0x3530120] 8x8 transform intra:65.4% inter:97.1%
[libx264 @ 0x3530120] coded y,uvDC,uvAC intra: 34.2% 38.6% 13.2% inter: 1.9% 1.5% 0.0%
[libx264 @ 0x3530120] i16 v,h,dc,p: 32% 53%  5% 10%
[libx264 @ 0x3530120] i8 v,h,dc,ddl,ddr,vr,hd,vl,hu: 21% 20% 35%  3%  4%  3%  6%  3%  5%
[libx264 @ 0x3530120] i4 v,h,dc,ddl,ddr,vr,hd,vl,hu: 26% 33% 10%  5%  6%  5%  8%  3%  4%
[libx264 @ 0x3530120] i8c dc,h,v,p: 79% 11%  9%  1%
[libx264 @ 0x3530120] Weighted P-Frames: Y:0.5% UV:0.0%
[libx264 @ 0x3530120] ref P L0: 61.8% 30.0%  7.0%  1.2%  0.0%
[libx264 @ 0x3530120] ref B L0: 92.2%  7.2%  0.6%
[libx264 @ 0x3530120] ref B L1: 98.1%  1.9%
[libx264 @ 0x3530120] kb/s:4481.38
